<svg
  width="118"
  height="38"
  viewBox="0 0 118 38"
  fill="none"
  xmlns="http://www.w3.org/2000/svg"
>
<path
    d="M19.8288 0.759998C21.3221 0.759998 22.6821 0.919999 23.9088 1.24C25.1621 1.53333 26.3221 2.12 27.3888 3C27.6021 3.16 27.6821 3.38667 27.6288 3.68C27.4954 4.16 27.3088 4.62667 27.0688 5.08C26.8554 5.50667 26.5754 5.89333 26.2288 6.24C25.8821 6.56 25.4821 6.82666 25.0288 7.04C24.5754 7.25333 24.0821 7.36 23.5488 7.36C22.9621 7.36 22.4554 7.24 22.0288 7C21.6021 6.73333 21.2021 6.41333 20.8288 6.04C20.4821 5.64 20.1354 5.22666 19.7888 4.8C19.4688 4.34666 19.0821 3.93333 18.6288 3.56C18.2021 3.16 17.6954 2.84 17.1088 2.6C16.5221 2.33333 15.8021 2.2 14.9488 2.2C14.0154 2.2 13.4021 2.44 13.1088 2.92C12.8421 3.37333 12.7088 4.01333 12.7088 4.84V13.2C12.7088 13.4133 12.7354 13.6267 12.7888 13.84C12.8421 14.0267 12.9621 14.2133 13.1488 14.4C13.3621 14.5867 13.6554 14.7333 14.0288 14.84C14.4288 14.9467 14.9754 15 15.6688 15C16.3088 15 16.8688 14.9067 17.3488 14.72C17.8554 14.5333 18.2954 14.2933 18.6688 14C19.0421 13.7067 19.3488 13.3867 19.5888 13.04C19.8288 12.6667 20.0021 12.2933 20.1088 11.92C20.1621 11.7867 20.2421 11.6933 20.3488 11.64C20.4821 11.5867 20.6021 11.6 20.7088 11.68C20.9754 11.8933 21.2021 12.3067 21.3888 12.92C21.5754 13.5333 21.6688 14.52 21.6688 15.88C21.6688 17.2133 21.5754 18.1867 21.3888 18.8C21.2021 19.4133 20.9754 19.8267 20.7088 20.04C20.6021 20.12 20.4821 20.1467 20.3488 20.12C20.2421 20.0667 20.1621 19.9733 20.1088 19.84C20.0021 19.4667 19.8288 19.1067 19.5888 18.76C19.3488 18.3867 19.0421 18.0533 18.6688 17.76C18.2954 17.4667 17.8554 17.2267 17.3488 17.04C16.8688 16.8533 16.3088 16.76 15.6688 16.76C14.9754 16.76 14.4288 16.8133 14.0288 16.92C13.6554 17.0267 13.3621 17.1733 13.1488 17.36C12.9621 17.52 12.8421 17.7067 12.7888 17.92C12.7354 18.1333 12.7088 18.3467 12.7088 18.56V24.92C12.7088 25.5333 12.7888 26.0667 12.9488 26.52C13.1088 26.9733 13.3088 27.3733 13.5488 27.72C13.8154 28.0667 14.0821 28.3733 14.3488 28.64C14.6421 28.88 14.9088 29.08 15.1488 29.24C15.2821 29.32 15.3488 29.4267 15.3488 29.56C15.3488 29.6933 15.2954 29.8133 15.1888 29.92C14.9488 30.1067 14.6021 30.28 14.1488 30.44C13.7221 30.5733 13.2421 30.6933 12.7088 30.8C12.5221 30.8267 12.2421 30.8533 11.8688 30.88C11.4954 30.9067 11.1088 30.9333 10.7088 30.96C10.3088 30.96 9.93542 30.9733 9.58875 31C9.24208 31 8.98875 31 8.82875 31H7.14875C7.01542 31 6.76208 31 6.38875 31C6.04208 30.9733 5.65542 30.96 5.22875 30.96C4.82875 30.9333 4.42875 30.9067 4.02875 30.88C3.65542 30.8533 3.38875 30.8267 3.22875 30.8C2.69542 30.6933 2.20208 30.5733 1.74875 30.44C1.29542 30.28 0.962083 30.1067 0.74875 29.92C0.615417 29.8133 0.54875 29.6933 0.54875 29.56C0.575417 29.4267 0.655417 29.32 0.78875 29.24C1.26875 28.8933 1.66875 28.4533 1.98875 27.92C2.30875 27.36 2.57542 26.5867 2.78875 25.6C3.00208 24.56 3.14875 23.2133 3.22875 21.56C3.33542 19.9067 3.38875 17.8133 3.38875 15.28C3.38875 12.8533 3.34875 10.8533 3.26875 9.28C3.18875 7.70666 3.04208 6.44 2.82875 5.48C2.61542 4.52 2.33542 3.8 1.98875 3.32C1.64208 2.81333 1.20208 2.41333 0.66875 2.12C0.375417 1.90667 0.34875 1.68 0.58875 1.44C0.802083 1.25333 1.14875 1.09333 1.62875 0.959998C2.10875 0.826665 2.77542 0.759998 3.62875 0.759998H12.7088H19.8288ZM43.0056 9.32C43.619 9.32 44.219 9.44 44.8056 9.68C45.3923 9.92 45.9123 10.2267 46.3656 10.6C46.8456 10.9467 47.219 11.3333 47.4856 11.76C47.779 12.16 47.9256 12.5333 47.9256 12.88C47.9256 13.1733 47.8456 13.6133 47.6856 14.2C47.5523 14.7867 47.3123 15.3867 46.9656 16C46.6456 16.5867 46.2056 17.1067 45.6456 17.56C45.0856 18.0133 44.3923 18.24 43.5656 18.24C42.7123 18.24 41.9923 18.0133 41.4056 17.56C40.819 17.08 40.3256 16.56 39.9256 16C39.5256 15.44 39.179 14.9333 38.8856 14.48C38.5923 14 38.3256 13.76 38.0856 13.76C37.7123 13.76 37.4723 13.92 37.3656 14.24C37.259 14.56 37.2056 15.0667 37.2056 15.76V20C37.2056 20.7733 37.219 21.5733 37.2456 22.4C37.299 23.2267 37.3923 24.0533 37.5256 24.88C37.6856 25.68 37.9123 26.4533 38.2056 27.2C38.499 27.9467 38.9123 28.6267 39.4456 29.24C39.6323 29.4533 39.6323 29.6533 39.4456 29.84C39.1256 30.1333 38.4056 30.4 37.2856 30.64C36.1923 30.88 34.6456 31 32.6456 31C30.6723 31 29.1256 30.88 28.0056 30.64C26.9123 30.4 26.2056 30.1333 25.8856 29.84C25.699 29.6533 25.699 29.4533 25.8856 29.24C26.419 28.6267 26.8323 27.9467 27.1256 27.2C27.419 26.4533 27.6323 25.68 27.7656 24.88C27.9256 24.0533 28.019 23.2267 28.0456 22.4C28.099 21.5733 28.1256 20.7733 28.1256 20C28.1256 17.5733 27.899 15.7333 27.4456 14.48C26.9923 13.2267 26.4856 12.3333 25.9256 11.8C25.7923 11.6933 25.739 11.56 25.7656 11.4C25.7656 11.24 25.8323 11.12 25.9656 11.04C26.899 10.2933 28.219 9.72 29.9256 9.32C31.6323 8.89333 33.8456 8.65333 36.5656 8.6C36.9923 8.6 37.2056 8.81333 37.2056 9.24V11.24C37.2056 11.32 37.2456 11.3867 37.3256 11.44C37.4056 11.4667 37.4856 11.4533 37.5656 11.4C38.419 10.7067 39.259 10.1867 40.0856 9.84C40.939 9.49333 41.9123 9.32 43.0056 9.32ZM50.2031 4.4C50.2031 3.94667 50.3498 3.50667 50.6431 3.08C50.9631 2.62667 51.3898 2.21333 51.9231 1.84C52.4565 1.46667 53.0831 1.14667 53.8031 0.879999C54.5231 0.586665 55.2831 0.373331 56.0831 0.239998C56.9098 0.106665 57.6831 0.0666652 58.4031 0.119999C59.1231 0.173332 59.7498 0.306665 60.2831 0.519999C60.8165 0.733333 61.2298 1.01333 61.5231 1.36C61.8431 1.70666 62.0031 2.10667 62.0031 2.56C62.0031 3.01333 61.8431 3.46667 61.5231 3.92C61.2298 4.34667 60.8165 4.74667 60.2831 5.12C59.7498 5.49333 59.1231 5.82667 58.4031 6.12C57.6831 6.38666 56.9098 6.58666 56.0831 6.72C55.2831 6.85333 54.5231 6.89333 53.8031 6.84C53.0831 6.78667 52.4565 6.65333 51.9231 6.44C51.3898 6.22667 50.9631 5.94666 50.6431 5.6C50.3498 5.25333 50.2031 4.85333 50.2031 4.4ZM64.0831 29.84C63.7631 30.1333 63.0565 30.4 61.9631 30.64C60.8698 30.88 59.3231 31 57.3231 31C55.3231 31 53.7765 30.88 52.6831 30.64C51.5898 30.4 50.8831 30.1333 50.5631 29.84C50.3498 29.68 50.3365 29.48 50.5231 29.24C51.0565 28.6267 51.4698 27.9467 51.7631 27.2C52.0831 26.4533 52.3098 25.68 52.4431 24.88C52.6031 24.0533 52.6965 23.2267 52.7231 22.4C52.7498 21.5733 52.7631 20.7733 52.7631 20C52.7631 18.7733 52.6965 17.7067 52.5631 16.8C52.4565 15.8933 52.2965 15.12 52.0831 14.48C51.8965 13.8133 51.6698 13.2667 51.4031 12.84C51.1365 12.4133 50.8698 12.0667 50.6031 11.8C50.4698 11.6933 50.4031 11.56 50.4031 11.4C50.4298 11.24 50.5098 11.12 50.6431 11.04C51.5765 10.2933 52.8831 9.72 54.5631 9.32C56.2698 8.89333 58.4965 8.65333 61.2431 8.6C61.6698 8.6 61.8831 8.81333 61.8831 9.24V20C61.8831 20.7733 61.8965 21.5733 61.9231 22.4C61.9498 23.2267 62.0298 24.0533 62.1631 24.88C62.3231 25.68 62.5498 26.4533 62.8431 27.2C63.1631 27.9467 63.5898 28.6267 64.1231 29.24C64.2565 29.48 64.2431 29.68 64.0831 29.84ZM78.4013 24.96C80.1079 24.4533 81.7213 24.1867 83.2413 24.16C84.7879 24.1067 86.1346 24.2933 87.2813 24.72C88.4279 25.12 89.3479 25.76 90.0413 26.64C90.7613 27.4933 91.1613 28.5733 91.2413 29.88C91.3213 31.3733 91.0413 32.6533 90.4013 33.72C89.7613 34.7867 88.9346 35.6267 87.9213 36.24C86.9346 36.88 85.8546 37.28 84.6813 37.44C83.5079 37.6267 82.4413 37.56 81.4813 37.24C81.2946 37.1333 81.2813 37 81.4413 36.84C81.8413 36.6267 82.2013 36.24 82.5213 35.68C82.8679 35.12 82.9613 34.5467 82.8013 33.96C82.6679 33.4 82.1746 32.8933 81.3213 32.44C80.4946 32.0133 79.1213 31.8 77.2013 31.8C74.9879 31.8 73.1746 31.6133 71.7613 31.24C70.3479 30.8933 69.2279 30.4667 68.4013 29.96C67.6013 29.4267 67.0413 28.8667 66.7213 28.28C66.4279 27.6667 66.2812 27.12 66.2812 26.64C66.2812 26.0533 66.4146 25.4933 66.6813 24.96C66.9746 24.4 67.3346 23.8933 67.7613 23.44C68.2146 22.9867 68.6946 22.5733 69.2013 22.2C69.7079 21.8267 70.1879 21.5067 70.6413 21.24C69.4946 20.5733 68.5879 19.7867 67.9213 18.88C67.2813 17.9467 66.9613 16.9333 66.9613 15.84C66.9613 14.8533 67.2413 13.92 67.8013 13.04C68.3613 12.16 69.1346 11.3867 70.1213 10.72C71.1079 10.0533 72.2546 9.53333 73.5613 9.16C74.8946 8.78667 76.3079 8.6 77.8013 8.6C80.0679 8.6 82.0946 9.01333 83.8813 9.84C84.4413 9.54667 84.8679 9.18667 85.1613 8.76C85.4546 8.30667 85.6946 7.84 85.8813 7.36C86.0946 6.88 86.2946 6.4 86.4812 5.92C86.6679 5.44 86.9479 5 87.3213 4.6C87.8013 4.06667 88.3479 3.8 88.9613 3.8C89.6013 3.77333 90.1479 3.93333 90.6013 4.28C91.0813 4.62667 91.4013 5.10667 91.5613 5.72C91.7479 6.30667 91.6413 6.96 91.2413 7.68C90.8679 8.32 90.1746 8.93333 89.1613 9.52C88.1746 10.08 86.8413 10.4 85.1613 10.48C86.2546 11.1467 87.1079 11.9467 87.7213 12.88C88.3613 13.7867 88.6813 14.7733 88.6813 15.84C88.6813 16.8533 88.3879 17.8 87.8013 18.68C87.2413 19.5333 86.4679 20.2933 85.4813 20.96C84.4946 21.6267 83.3346 22.1467 82.0013 22.52C80.6946 22.8933 79.2946 23.08 77.8013 23.08C76.6813 23.08 75.6146 22.9733 74.6013 22.76C73.6146 22.5467 72.6946 22.2533 71.8413 21.88C71.6279 22.0133 71.3746 22.1867 71.0813 22.4C70.8146 22.5867 70.5613 22.8133 70.3213 23.08C70.0813 23.32 69.8813 23.5867 69.7213 23.88C69.5613 24.1733 69.4813 24.4933 69.4813 24.84C69.4813 25.2933 69.6146 25.6533 69.8813 25.92C70.1746 26.16 70.6546 26.2933 71.3213 26.32C72.0146 26.3467 72.9346 26.2533 74.0813 26.04C75.2279 25.8267 76.6679 25.4667 78.4013 24.96ZM77.8013 9.84C77.4013 9.84 77.0279 10 76.6813 10.32C76.3346 10.64 76.0279 11.0667 75.7613 11.6C75.5213 12.1333 75.3213 12.7733 75.1613 13.52C75.0013 14.24 74.9213 15.0133 74.9213 15.84C74.9213 16.6667 75.0013 17.4533 75.1613 18.2C75.3213 18.92 75.5213 19.5467 75.7613 20.08C76.0279 20.6133 76.3346 21.04 76.6813 21.36C77.0279 21.68 77.4013 21.84 77.8013 21.84C78.2013 21.84 78.5746 21.68 78.9213 21.36C79.2679 21.04 79.5746 20.6133 79.8413 20.08C80.1079 19.5467 80.3079 18.92 80.4413 18.2C80.6013 17.4533 80.6813 16.6667 80.6813 15.84C80.6813 15.0133 80.6013 14.24 80.4413 13.52C80.3079 12.7733 80.1079 12.1333 79.8413 11.6C79.5746 11.0667 79.2679 10.64 78.9213 10.32C78.5746 10 78.2013 9.84 77.8013 9.84ZM104.603 8.6C106.31 8.6 107.923 8.89333 109.443 9.48C110.963 10.0667 112.283 10.8667 113.403 11.88C114.523 12.8933 115.403 14.08 116.043 15.44C116.71 16.8 117.043 18.2533 117.043 19.8C117.043 21.3467 116.71 22.8 116.043 24.16C115.403 25.52 114.523 26.7067 113.403 27.72C112.283 28.7333 110.963 29.5333 109.443 30.12C107.923 30.7067 106.31 31 104.603 31C102.896 31 101.283 30.7067 99.7631 30.12C98.2698 29.5333 96.9631 28.7333 95.8431 27.72C94.7231 26.7067 93.8298 25.52 93.1631 24.16C92.5231 22.8 92.2031 21.3467 92.2031 19.8C92.2031 18.2533 92.5231 16.8 93.1631 15.44C93.8298 14.08 94.7231 12.8933 95.8431 11.88C96.9631 10.8667 98.2698 10.0667 99.7631 9.48C101.283 8.89333 102.896 8.6 104.603 8.6ZM104.603 29.44C105.056 29.44 105.47 29.1867 105.843 28.68C106.243 28.1733 106.59 27.4933 106.883 26.64C107.176 25.76 107.403 24.7333 107.563 23.56C107.75 22.3867 107.843 21.1333 107.843 19.8C107.843 18.4667 107.75 17.2133 107.563 16.04C107.403 14.8667 107.176 13.8533 106.883 13C106.59 12.12 106.243 11.4267 105.843 10.92C105.47 10.4133 105.056 10.16 104.603 10.16C104.15 10.16 103.723 10.4133 103.323 10.92C102.95 11.4267 102.616 12.12 102.323 13C102.056 13.8533 101.83 14.8667 101.643 16.04C101.483 17.2133 101.403 18.4667 101.403 19.8C101.403 21.1333 101.483 22.3867 101.643 23.56C101.83 24.7333 102.056 25.76 102.323 26.64C102.616 27.4933 102.95 28.1733 103.323 28.68C103.723 29.1867 104.15 29.44 104.603 29.44Z"
    fill="#F07401"
  />
</svg>
